<svg id="Layer_1" data-name="Layer 1" xmlns="http://www.w3.org/2000/svg" xmlns:xlink="http://www.w3.org/1999/xlink" viewBox="0 0 579.76 339.45"><defs><style>.cls-1{fill:url(#linear-gradient);}.cls-2{fill:url(#linear-gradient-2);}</style><linearGradient id="linear-gradient" x1="18.85" y1="414.7" x2="462.25" y2="414.7" gradientUnits="userSpaceOnUse"><stop offset="0" stop-color="#84c1d9"/><stop offset="0.06" stop-color="#6db3ce"/><stop offset="0.13" stop-color="#5aa7c6"/><stop offset="0.2" stop-color="#4fa0c1"/><stop offset="0.28" stop-color="#4b9ebf"/><stop offset="0.67" stop-color="#2e78a6"/><stop offset="0.89" stop-color="#124673"/><stop offset="1" stop-color="#405f73"/></linearGradient><linearGradient id="linear-gradient-2" x1="379.66" y1="414.7" x2="598.62" y2="414.7" xlink:href="#linear-gradient"/></defs><path class="cls-1" d="M462.25,414.7a12.46,12.46,0,0,1-12.46,12.47H346.85V572a12.46,12.46,0,1,1-24.92,0v-302H199.34v0a17.76,17.76,0,0,0-16,9.95l0,0L166.63,315.2l-41.21,87H276.1a12.47,12.47,0,0,1,0,24.93H113.62L42.8,576.74c-.09.19-.18.38-.26.57a12.47,12.47,0,0,1-15.75,6.19l-.11,0-1.41-.68s0,0,0,0A12.45,12.45,0,0,1,19.83,567c.16-.38.33-.73.52-1.09L99.49,398.79h0L160.4,270.13c.09-.22.19-.42.29-.63a2.79,2.79,0,0,1,.15-.3A42.71,42.71,0,0,1,199.34,245h135a12.46,12.46,0,0,1,12.46,12.46v144.8H449.79A12.46,12.46,0,0,1,462.25,414.7Z" transform="translate(-18.85 -244.98)"/><path class="cls-2" d="M598.62,493.33a91.1,91.1,0,0,1-90.8,91.1H392.12a12.47,12.47,0,0,1,0-24.93h115.7a66.17,66.17,0,0,0-.29-132.33h-.65a12.47,12.47,0,0,1,0-24.91h.65a66.17,66.17,0,1,0,0-132.33H392.12a12.47,12.47,0,0,1,0-24.93H507.53a91.11,91.11,0,0,1,46,169.73A91.05,91.05,0,0,1,598.62,493.33Z" transform="translate(-18.85 -244.98)"/></svg>